<?xml version="1.0" standalone="no"?><!DOCTYPE svg PUBLIC "-//W3C//DTD SVG 1.1//EN" "http://www.w3.org/Graphics/SVG/1.1/DTD/svg11.dtd"><svg t="1634713427934" class="icon" viewBox="0 0 1024 1024" version="1.1" xmlns="http://www.w3.org/2000/svg" p-id="2410" xmlns:xlink="http://www.w3.org/1999/xlink" width="200" height="200"><defs><style type="text/css"></style></defs><path d="M689.664 172.992l0 133.781333c89.28 58.176 148.394667 158.698667 148.394667 273.216 0 180.032-145.984 325.994667-326.058667 325.994667-180.032 0-326.016-145.962667-326.016-325.994667 0-101.781333 46.634667-192.618667 119.722667-252.437333L305.706667 186.773333C164.373333 261.098667 67.968 409.216 67.968 579.946667 67.968 825.173333 266.794667 1024 512.042667 1024c245.205333 0 443.989333-198.826667 443.989333-444.053333C956.010667 397.888 846.464 241.536 689.664 172.992z" p-id="2411"></path><path d="M577.344 459.989333c0 28.693333-29.248 51.989333-65.344 51.989333l0 0c-36.053333 0-65.322667-23.274667-65.322667-51.989333L446.677333 51.989333C446.677333 23.274667 475.946667 0 512 0l0 0c36.096 0 65.344 23.274667 65.344 51.989333L577.344 459.989333z" p-id="2412"></path></svg>