<?xml version="1.0" encoding="UTF-8"?>
<svg width="14px" height="15px" viewBox="0 0 14 15" version="1.1" xmlns="http://www.w3.org/2000/svg" xmlns:xlink="http://www.w3.org/1999/xlink">
    <!-- Generator: Sketch 57 (83077) - https://sketch.com -->
    <title>隐藏</title>
    <desc>Created with Sketch.</desc>
    <g id="页面-1" stroke="none" stroke-width="1" fill="none" fill-rule="evenodd">
        <g id="初始界面修改" transform="translate(-47.000000, -754.000000)" fill-rule="nonzero">
            <g id="编组-3" transform="translate(24.000000, 749.000000)">
                <g id="隐藏" transform="translate(30.000000, 12.000000) scale(-1, 1) translate(-30.000000, -12.000000) translate(22.000000, 4.000000)">
                    <rect id="矩形" fill="#000000" opacity="0" x="0" y="0" width="16" height="16"></rect>
                    <path d="M7.98957813,1.00371875 C4.11520313,1.00371875 0.97440625,4.14451563 0.97440625,8.01889063 C0.97440625,11.8932656 4.11521875,15.0340625 7.98957813,15.0340625 C11.8639375,15.0340625 15.00475,11.8932656 15.00475,8.01889063 C15.00475,4.14451562 11.8639531,1.00371875 7.98957813,1.00371875 Z M7.9083125,11.8591406 C7.68871875,12.0788281 7.332625,12.0788281 7.112875,11.8591406 L3.65914063,8.40546875 C3.54940625,8.295625 3.4945,8.15176563 3.4945,8.0078125 C3.4945,7.86384375 3.5495,7.71989062 3.65914063,7.61015625 L7.112875,4.15653125 C7.332625,3.93678125 7.68871875,3.93678125 7.9083125,4.15653125 C8.1279375,4.37610938 8.1279375,4.73226563 7.9083125,4.95195313 L4.85245313,8.0078125 L7.9083125,11.0637344 C8.1279375,11.2833125 8.1279375,11.6395625 7.9083125,11.8591406 Z M11.4095469,11.0637187 C11.629125,11.2833125 11.629125,11.6395625 11.4095469,11.8591406 C11.1899531,12.0788281 10.8338125,12.0788281 10.6141094,11.8591406 L7.16032813,8.40546875 C7.05070313,8.29573438 6.9956875,8.15176563 6.9956875,8.0078125 C6.9956875,7.86384375 7.05059375,7.72 7.16032813,7.61015625 L10.6141094,4.15653125 C10.8337969,3.93678125 11.1899531,3.93678125 11.4095469,4.15653125 C11.629125,4.37610938 11.629125,4.73226563 11.4095469,4.95195313 L8.3536875,8.0078125 L11.4095469,11.0637187 Z" id="形状" fill="#FFFFFF"></path>
                </g>
            </g>
        </g>
    </g>
</svg>