<svg xmlns="http://www.w3.org/2000/svg" viewBox="0 0 32 32" width="24" height="24" style="fill: rgba(79, 139, 202, 1);"><path d="M22.944 16.608c0.288 0.288 0.608 0.512 0.992 0.672 0.384 0.128 0.768 0.224 1.184 0.224s0.832-0.096 1.216-0.224 0.704-0.352 0.992-0.672c0.256-0.32 0.48-0.704 0.64-1.216s0.256-1.12 0.256-1.856-0.096-1.344-0.256-1.824c-0.144-0.478-0.363-0.894-0.646-1.256l0.006 0.008c-0.288-0.288-0.608-0.544-0.992-0.672-0.384-0.16-0.768-0.224-1.216-0.224s-0.8 0.064-1.184 0.224c-0.397 0.139-0.731 0.37-0.99 0.669l-0.002 0.003c-0.256 0.32-0.48 0.736-0.64 1.216-0.16 0.512-0.256 1.12-0.256 1.856s0.096 1.344 0.256 1.856c0.16 0.48 0.384 0.896 0.64 1.216zM23.968 11.616c0.288-0.416 0.672-0.608 1.184-0.608 0.48 0 0.896 0.192 1.184 0.608s0.416 1.056 0.416 1.92c0 0.416-0.032 0.8-0.096 1.12-0.096 0.32-0.192 0.576-0.32 0.8-0.16 0.192-0.32 0.352-0.512 0.448s-0.416 0.16-0.672 0.16c-0.512 0-0.896-0.224-1.184-0.64s-0.416-1.024-0.416-1.888c0-0.864 0.128-1.504 0.416-1.92zM29.888 20.032c-0.128-0.192-0.288-0.256-0.512-0.256-0.704-0.032-1.28-0.32-1.696-0.928-0.224-0.352-0.64-0.352-0.896 0.032-0.512 0.704-1.184 0.992-2.016 0.864-0.576-0.064-1.088-0.256-1.344-0.8-0.256-0.512-0.576-0.576-0.992-0.192-0.384 0.352-0.8 0.64-1.312 0.736-0.832 0.192-1.376-0.192-1.504-1.056-0.032-0.224 0-0.448 0-0.672 0.064-0.384-0.256-0.608-0.608-0.48-0.139 0.046-0.258 0.123-0.352 0.224l-0 0c-0.256 0.192-0.48 0.416-0.736 0.608-0.864 0.704-1.856 0.992-2.944 0.768-2.048-0.448-3.648-2.464-3.68-4.608-0.032-1.312 0.672-2.72 1.728-3.488 0.475-0.361 1.075-0.578 1.727-0.578 0.98 0 1.845 0.491 2.363 1.24l0.006 0.010c0.608 0.832 0.48 1.92-0.288 2.592-0.608 0.576-1.888 0.48-2.432-0.128-0.224-0.256-0.256-0.608-0.064-0.864 0.16-0.256 0.416-0.352 0.768-0.224 0.064 0.032 0.096 0.032 0.16 0.064 0.256 0.064 0.48-0.032 0.576-0.256s0-0.48-0.224-0.608c-0.416-0.192-0.832-0.256-1.28-0.096-0.608 0.192-0.96 0.64-1.056 1.248-0.096 0.704 0.16 1.28 0.736 1.632 1.504 0.992 3.488 0.8 4.288-1.28 0.544-1.472 0.064-2.752-0.96-3.84-1.28-1.344-2.848-1.568-4.544-1.184-1.92 0.448-3.392 1.568-4.576 3.104-0.96 1.312-1.6 2.784-2.112 4.288-0.224 0.704-0.48 1.408-0.928 2.016-0.672 0.928-1.312 1.888-2.656 1.888-0.32 0-0.544 0.288-0.544 0.512 0.032 0.256 0.256 0.448 0.576 0.512 0.064 0.032 0.128 0.032 0.192 0.032 0.736 0 1.376-0.256 1.952-0.704 0.16-0.16 0.256-0.128 0.448-0.032 1.408 0.992 2.656 0.96 4.064-0.096 0.128-0.096 0.192-0.096 0.32 0 1.28 1.024 2.784 1.088 4.128 0.192 0.16-0.128 0.224-0.064 0.352 0.032 1.248 0.832 2.88 0.8 4.064-0.096 0.192-0.128 0.288-0.128 0.48 0 1.376 0.96 2.688 0.928 4-0.096 0.192-0.128 0.256-0.096 0.384 0 1.312 1.056 2.848 1.056 4.16 0.032 0.128-0.128 0.192-0.064 0.32 0.032 0.576 0.48 1.248 0.704 2.016 0.736 0.009 0.001 0.019 0.001 0.029 0.001 0.199 0 0.37-0.117 0.449-0.286l0.001-0.003c0.128-0.192 0.096-0.384-0.032-0.544zM24.928 22.56c-0.672 0-1.216-0.288-1.632-0.864-0.288-0.448-0.672-0.416-0.992 0.032-0.384 0.544-0.928 0.832-1.632 0.864-0.736 0-1.344-0.32-1.824-0.896-0.352-0.384-0.64-0.416-0.992-0.032l-0.064 0.064c-0.992 1.024-2.016 1.12-3.168 0.288l-0.288-0.192c-0.384-0.352-0.576-0.352-0.96 0-0.48 0.448-0.992 0.768-1.696 0.768-0.352-0.032-0.608 0.192-0.608 0.512s0.256 0.544 0.64 0.544c0.704 0 1.344-0.256 1.888-0.672 0.192-0.16 0.32-0.16 0.544-0.032 1.376 0.96 2.656 0.928 4-0.096 0.16-0.128 0.256-0.096 0.384 0 1.248 1.056 2.88 1.056 4.128 0.064 0.128-0.096 0.192-0.128 0.32 0 0.576 0.48 1.216 0.704 1.856 0.736 0.32 0.032 0.544-0.064 0.672-0.32 0.128-0.192 0.064-0.384-0.064-0.544s-0.32-0.192-0.512-0.224z"></path></svg>