<svg xmlns="http://www.w3.org/2000/svg" viewBox="0 0 32 32" width="24" height="24" style="fill: rgba(79, 139, 202, 1);"><path d="M24.667 12c1.333 1.413 2 3.192 2 5.333 0 4.621-4.933 5.701-7.333 12-0.889-0.767-1.333-1.877-1.333-3.333 0-4.643 6.667-7.053 6.667-14zM19.333 6.667c1.6 1.651 2.4 3.429 2.4 5.333 0 6.601-8.060 7.589-6.4 17.333-2.223-1.547-3.333-3.769-3.333-6.667 0-4.4233 7.333-8 7.333-16zM13.333 1.333c1.777 2.223 2.667 4.223 2.667 6 0 8.333-11.333 10.963-5.333 22-3.488-0.773-6-4-6-8 0-8.667 8.667-10 8.667-20z"></path></svg>